<mxfile host="app.diagrams.net" agent="Mozilla/5.0 (Windows NT 10.0; Win64; x64) AppleWebKit/537.36 (KHTML, like Gecko) Chrome/129.0.0.0 Safari/537.36" version="24.8.6">
  <diagram name="Trang-1" id="8WFXPg-_QaVBG3zSbg7J">
    <mxGraphModel dx="1177" dy="809" grid="1" gridSize="10" guides="1" tooltips="1" connect="1" arrows="1" fold="1" page="1" pageScale="1" pageWidth="827" pageHeight="1169" math="0" shadow="0">
      <root>
        <mxCell id="0" />
        <mxCell id="1" parent="0" />
        <mxCell id="5tKk6788LRjEy3-odSad-1" value="Star" style="text;html=1;align=center;verticalAlign=middle;whiteSpace=wrap;rounded=0;" parent="1" vertex="1">
          <mxGeometry x="380" y="200" width="60" height="30" as="geometry" />
        </mxCell>
        <mxCell id="5tKk6788LRjEy3-odSad-2" value="" style="endArrow=classic;html=1;rounded=0;" parent="1" edge="1">
          <mxGeometry width="50" height="50" relative="1" as="geometry">
            <mxPoint x="409.5" y="230" as="sourcePoint" />
            <mxPoint x="409.5" y="290" as="targetPoint" />
          </mxGeometry>
        </mxCell>
        <mxCell id="5tKk6788LRjEy3-odSad-3" value="Nhap a,b" style="text;html=1;align=center;verticalAlign=middle;whiteSpace=wrap;rounded=0;" parent="1" vertex="1">
          <mxGeometry x="380" y="300" width="60" height="30" as="geometry" />
        </mxCell>
        <mxCell id="5tKk6788LRjEy3-odSad-4" value="" style="endArrow=classic;html=1;rounded=0;" parent="1" edge="1">
          <mxGeometry width="50" height="50" relative="1" as="geometry">
            <mxPoint x="440" y="440" as="sourcePoint" />
            <mxPoint x="470" y="500" as="targetPoint" />
          </mxGeometry>
        </mxCell>
        <mxCell id="5tKk6788LRjEy3-odSad-12" value="dung" style="edgeLabel;html=1;align=center;verticalAlign=middle;resizable=0;points=[];" parent="5tKk6788LRjEy3-odSad-4" vertex="1" connectable="0">
          <mxGeometry x="0.0089" y="-4" relative="1" as="geometry">
            <mxPoint as="offset" />
          </mxGeometry>
        </mxCell>
        <mxCell id="5tKk6788LRjEy3-odSad-5" value="" style="endArrow=classic;html=1;rounded=0;" parent="1" edge="1">
          <mxGeometry width="50" height="50" relative="1" as="geometry">
            <mxPoint x="375" y="440" as="sourcePoint" />
            <mxPoint x="350" y="500" as="targetPoint" />
          </mxGeometry>
        </mxCell>
        <mxCell id="5tKk6788LRjEy3-odSad-13" value="sai" style="edgeLabel;html=1;align=center;verticalAlign=middle;resizable=0;points=[];" parent="5tKk6788LRjEy3-odSad-5" vertex="1" connectable="0">
          <mxGeometry x="-0.1274" relative="1" as="geometry">
            <mxPoint x="-1" as="offset" />
          </mxGeometry>
        </mxCell>
        <mxCell id="5tKk6788LRjEy3-odSad-6" value="" style="endArrow=classic;html=1;rounded=0;" parent="1" edge="1">
          <mxGeometry width="50" height="50" relative="1" as="geometry">
            <mxPoint x="409.5" y="330" as="sourcePoint" />
            <mxPoint x="409.5" y="390" as="targetPoint" />
            <Array as="points">
              <mxPoint x="409.5" y="360" />
            </Array>
          </mxGeometry>
        </mxCell>
        <mxCell id="5tKk6788LRjEy3-odSad-8" value="a&amp;gt;b" style="text;html=1;align=center;verticalAlign=middle;whiteSpace=wrap;rounded=0;" parent="1" vertex="1">
          <mxGeometry x="380" y="400" width="60" height="30" as="geometry" />
        </mxCell>
        <mxCell id="Hfm668lDCS8ZnWf5U8Pn-4" value="" style="edgeStyle=orthogonalEdgeStyle;rounded=0;orthogonalLoop=1;jettySize=auto;html=1;" edge="1" parent="1" source="5tKk6788LRjEy3-odSad-10" target="Hfm668lDCS8ZnWf5U8Pn-3">
          <mxGeometry relative="1" as="geometry" />
        </mxCell>
        <mxCell id="5tKk6788LRjEy3-odSad-10" value="in:b" style="text;html=1;align=center;verticalAlign=middle;resizable=0;points=[];autosize=1;strokeColor=none;fillColor=none;" parent="1" vertex="1">
          <mxGeometry x="450" y="508" width="40" height="30" as="geometry" />
        </mxCell>
        <mxCell id="Hfm668lDCS8ZnWf5U8Pn-2" value="" style="edgeStyle=orthogonalEdgeStyle;rounded=0;orthogonalLoop=1;jettySize=auto;html=1;" edge="1" parent="1" source="5tKk6788LRjEy3-odSad-11" target="Hfm668lDCS8ZnWf5U8Pn-1">
          <mxGeometry relative="1" as="geometry" />
        </mxCell>
        <mxCell id="5tKk6788LRjEy3-odSad-11" value="in:a" style="text;html=1;align=center;verticalAlign=middle;resizable=0;points=[];autosize=1;strokeColor=none;fillColor=none;" parent="1" vertex="1">
          <mxGeometry x="320" y="508" width="40" height="30" as="geometry" />
        </mxCell>
        <mxCell id="Hfm668lDCS8ZnWf5U8Pn-1" value="end" style="text;html=1;align=center;verticalAlign=middle;resizable=0;points=[];autosize=1;strokeColor=none;fillColor=none;" vertex="1" parent="1">
          <mxGeometry x="320" y="618" width="40" height="30" as="geometry" />
        </mxCell>
        <mxCell id="Hfm668lDCS8ZnWf5U8Pn-3" value="end" style="text;html=1;align=center;verticalAlign=middle;resizable=0;points=[];autosize=1;strokeColor=none;fillColor=none;" vertex="1" parent="1">
          <mxGeometry x="450" y="618" width="40" height="30" as="geometry" />
        </mxCell>
      </root>
    </mxGraphModel>
  </diagram>
</mxfile>
